<svg width="500" height="500" viewBox="0 0 500 500" fill="none" xmlns="http://www.w3.org/2000/svg">
<rect width="500" height="500" fill="white"/>
<path d="M88.0448 205.796C87.3915 199.876 94.0447 200.97 98.3247 200.823C107.325 200.823 119.418 202.17 127.258 210.57V199.37C128.725 171.783 149.378 162.33 172.911 163.037C177.018 163.25 184.645 161.837 183.791 168.037C183.711 168.463 181.258 179.316 173.565 189.13C166.818 197.756 154.778 207.023 135.151 204.45V245.97C135.138 251.103 127.298 251.197 127.258 245.97C128.245 221.517 125.591 208.557 97.3247 208.757C99.8581 215.023 105.871 225.69 118.071 227.81C120.218 228.183 121.645 230.223 121.258 232.383C120.911 234.543 118.831 235.956 116.725 235.583C94.0181 231.65 88.2848 206.876 88.0448 205.796Z" fill="black"/>
<path d="M158.61 208.775C162.68 208.775 166.237 209.563 169.28 211.14C172.36 212.68 174.725 214.917 176.375 217.85C178.062 220.747 178.905 224.138 178.905 228.025C178.905 231.912 178.062 235.285 176.375 238.145C174.725 241.005 172.36 243.205 169.28 244.745C166.237 246.248 162.68 247 158.61 247H146.125V208.775H158.61ZM158.61 241.885C163.083 241.885 166.512 240.675 168.895 238.255C171.278 235.835 172.47 232.425 172.47 228.025C172.47 223.588 171.278 220.123 168.895 217.63C166.512 215.137 163.083 213.89 158.61 213.89H152.395V241.885H158.61ZM198.264 247.495C195.404 247.495 192.819 246.853 190.509 245.57C188.199 244.25 186.384 242.417 185.064 240.07C183.744 237.687 183.084 234.937 183.084 231.82C183.084 228.74 183.762 226.008 185.119 223.625C186.476 221.242 188.327 219.408 190.674 218.125C193.021 216.842 195.642 216.2 198.539 216.2C201.436 216.2 204.057 216.842 206.404 218.125C208.751 219.408 210.602 221.242 211.959 223.625C213.316 226.008 213.994 228.74 213.994 231.82C213.994 234.9 213.297 237.632 211.904 240.015C210.511 242.398 208.604 244.25 206.184 245.57C203.801 246.853 201.161 247.495 198.264 247.495ZM198.264 242.05C199.877 242.05 201.381 241.665 202.774 240.895C204.204 240.125 205.359 238.97 206.239 237.43C207.119 235.89 207.559 234.02 207.559 231.82C207.559 229.62 207.137 227.768 206.294 226.265C205.451 224.725 204.332 223.57 202.939 222.8C201.546 222.03 200.042 221.645 198.429 221.645C196.816 221.645 195.312 222.03 193.919 222.8C192.562 223.57 191.481 224.725 190.674 226.265C189.867 227.768 189.464 229.62 189.464 231.82C189.464 235.083 190.289 237.613 191.939 239.41C193.626 241.17 195.734 242.05 198.264 242.05ZM247.637 216.695V247H241.367V243.425C240.377 244.672 239.076 245.662 237.462 246.395C235.886 247.092 234.199 247.44 232.402 247.44C230.019 247.44 227.874 246.945 225.967 245.955C224.097 244.965 222.612 243.498 221.512 241.555C220.449 239.612 219.917 237.265 219.917 234.515V216.695H226.132V233.58C226.132 236.293 226.811 238.383 228.167 239.85C229.524 241.28 231.376 241.995 233.722 241.995C236.069 241.995 237.921 241.28 239.277 239.85C240.671 238.383 241.367 236.293 241.367 233.58V216.695H247.637ZM262.18 221.205C263.243 219.738 264.692 218.547 266.525 217.63C268.395 216.677 270.467 216.2 272.74 216.2C275.417 216.2 277.837 216.842 280 218.125C282.163 219.408 283.868 221.242 285.115 223.625C286.362 225.972 286.985 228.667 286.985 231.71C286.985 234.753 286.362 237.485 285.115 239.905C283.868 242.288 282.145 244.158 279.945 245.515C277.782 246.835 275.38 247.495 272.74 247.495C270.393 247.495 268.303 247.037 266.47 246.12C264.673 245.203 263.243 244.03 262.18 242.6V247H255.91V206.3H262.18V221.205ZM280.605 231.71C280.605 229.62 280.165 227.823 279.285 226.32C278.442 224.78 277.305 223.625 275.875 222.855C274.482 222.048 272.978 221.645 271.365 221.645C269.788 221.645 268.285 222.048 266.855 222.855C265.462 223.662 264.325 224.835 263.445 226.375C262.602 227.915 262.18 229.73 262.18 231.82C262.18 233.91 262.602 235.743 263.445 237.32C264.325 238.86 265.462 240.033 266.855 240.84C268.285 241.647 269.788 242.05 271.365 242.05C272.978 242.05 274.482 241.647 275.875 240.84C277.305 239.997 278.442 238.787 279.285 237.21C280.165 235.633 280.605 233.8 280.605 231.71ZM299.456 206.3V247H293.186V206.3H299.456ZM335.463 231.105C335.463 232.242 335.389 233.268 335.243 234.185H312.088C312.271 236.605 313.169 238.548 314.783 240.015C316.396 241.482 318.376 242.215 320.723 242.215C324.096 242.215 326.479 240.803 327.873 237.98H334.637C333.721 240.767 332.053 243.058 329.633 244.855C327.249 246.615 324.279 247.495 320.723 247.495C317.826 247.495 315.223 246.853 312.913 245.57C310.639 244.25 308.843 242.417 307.523 240.07C306.239 237.687 305.598 234.937 305.598 231.82C305.598 228.703 306.221 225.972 307.468 223.625C308.751 221.242 310.529 219.408 312.803 218.125C315.113 216.842 317.753 216.2 320.723 216.2C323.583 216.2 326.131 216.823 328.368 218.07C330.604 219.317 332.346 221.077 333.593 223.35C334.839 225.587 335.463 228.172 335.463 231.105ZM328.918 229.125C328.881 226.815 328.056 224.963 326.443 223.57C324.829 222.177 322.831 221.48 320.448 221.48C318.284 221.48 316.433 222.177 314.893 223.57C313.353 224.927 312.436 226.778 312.143 229.125H328.918ZM347.848 208.775V233.14C347.848 236.037 348.599 238.218 350.103 239.685C351.643 241.152 353.769 241.885 356.483 241.885C359.233 241.885 361.359 241.152 362.863 239.685C364.403 238.218 365.173 236.037 365.173 233.14V208.775H371.443V233.03C371.443 236.147 370.764 238.787 369.408 240.95C368.051 243.113 366.236 244.727 363.963 245.79C361.689 246.853 359.178 247.385 356.428 247.385C353.678 247.385 351.166 246.853 348.893 245.79C346.656 244.727 344.878 243.113 343.558 240.95C342.238 238.787 341.578 236.147 341.578 233.03V208.775H347.848ZM385.876 221.15C386.94 219.757 388.388 218.583 390.221 217.63C392.055 216.677 394.126 216.2 396.436 216.2C399.076 216.2 401.478 216.86 403.641 218.18C405.841 219.463 407.565 221.278 408.811 223.625C410.058 225.972 410.681 228.667 410.681 231.71C410.681 234.753 410.058 237.485 408.811 239.905C407.565 242.288 405.841 244.158 403.641 245.515C401.478 246.835 399.076 247.495 396.436 247.495C394.126 247.495 392.073 247.037 390.276 246.12C388.48 245.167 387.013 243.993 385.876 242.6V261.41H379.606V216.695H385.876V221.15ZM404.301 231.71C404.301 229.62 403.861 227.823 402.981 226.32C402.138 224.78 401.001 223.625 399.571 222.855C398.178 222.048 396.675 221.645 395.061 221.645C393.485 221.645 391.981 222.048 390.551 222.855C389.158 223.662 388.021 224.835 387.141 226.375C386.298 227.915 385.876 229.73 385.876 231.82C385.876 233.91 386.298 235.743 387.141 237.32C388.021 238.86 389.158 240.033 390.551 240.84C391.981 241.647 393.485 242.05 395.061 242.05C396.675 242.05 398.178 241.647 399.571 240.84C401.001 239.997 402.138 238.787 402.981 237.21C403.861 235.633 404.301 233.8 404.301 231.71Z" fill="black"/>
</svg>
